<svg xmlns="http://www.w3.org/2000/svg" viewBox="0 0 340 300">
  <g opacity=".9">
    <!-- file / report stack -->
    <g transform="translate(34 96)">
      <rect x="0" y="14" width="96" height="70" rx="8" fill="#0b78cc"/>
      <rect x="6" y="8" width="96" height="70" rx="8" fill="#eaf3fb"/>
      <rect x="12" y="2" width="96" height="70" rx="8" fill="#ffffff"/>
      <rect x="24" y="20" width="42" height="5" rx="2.5" fill="#0b5cad"/>
      <rect x="24" y="32" width="58" height="4" rx="2" fill="#a9c5dd"/>
      <rect x="24" y="42" width="50" height="4" rx="2" fill="#a9c5dd"/>
      <path d="M24 54 L44 48 L58 56 L72 44 L82 50" stroke="#16a36a" stroke-width="4" fill="none" stroke-linecap="round" stroke-linejoin="round"/>
    </g>
    <!-- books with gear -->
    <g transform="translate(196 138)">
      <rect x="0" y="40" width="30" height="60" rx="4" fill="#0b5cad"/>
      <rect x="36" y="28" width="26" height="72" rx="4" fill="#16a36a"/>
      <rect x="68" y="16" width="24" height="84" rx="4" fill="#e5484d"/>
      <g transform="translate(14 -2)">
        <circle cx="22" cy="22" r="15" fill="#f4c62e"/>
        <g fill="#063d78">
          <rect x="19" y="0" width="6" height="12" rx="2"/>
          <rect x="19" y="32" width="6" height="12" rx="2"/>
          <rect x="0" y="19" width="12" height="6" rx="2"/>
          <rect x="32" y="19" width="12" height="6" rx="2"/>
          <rect x="5" y="5" width="7" height="7" rx="2"/>
          <rect x="32" y="32" width="7" height="7" rx="2"/>
        </g>
        <circle cx="22" cy="22" r="7" fill="#063d78"/>
      </g>
    </g>
    <!-- bar chart -->
    <g transform="translate(248 66)" fill="#f4c62e">
      <rect x="0" y="34" width="14" height="36" rx="3"/>
      <rect x="22" y="20" width="14" height="50" rx="3" opacity=".8"/>
      <rect x="44" y="8" width="14" height="62" rx="3"/>
    </g>
    <path d="M286 34 L252 66" stroke="#063d78" stroke-width="4" stroke-linecap="round"/>
    <circle cx="286" cy="34" r="8" fill="#0b5cad"/>
    <circle cx="296" cy="24" r="5" fill="#ffffff"/>
    <circle cx="60" cy="30" r="52" fill="#ffffff" opacity=".14"/>
    <circle cx="312" cy="200" r="40" fill="#f4c62e" opacity=".18"/>
  </g>
</svg>