<svg xmlns="http://www.w3.org/2000/svg" viewBox="0 0 200 160" role="img" aria-label="Ilustrasi siswa membaca buku"/>
  <defs>
    <linearGradient id="srBg" x1="0" y1="0" x2="1" y2="1">
      <stop offset="0" stop-color="#F3F8FF"/>
      <stop offset="1" stop-color="#E4EFFB"/>
    </linearGradient>
  </defs>
  <rect width="200" height="160" rx="20" fill="url(#srBg)"/>
  <circle cx="44" cy="32" r="20" fill="#1287D6" opacity=".12"/>
  <circle cx="164" cy="120" r="30" fill="#F4C62E" opacity=".20"/>

  <!-- rak buku latar -->
  <g opacity=".30" fill="#0B5CAD">
    <rect x="16" y="96" width="9" height="30" rx="2"/>
    <rect x="27" y="102" width="9" height="24" rx="2"/>
    <rect x="164" y="94" width="9" height="32" rx="2"/>
    <rect x="175" y="100" width="9" height="26" rx="2"/>
  </g>

  <!-- buku terbuka -->
  <path d="M100 92c-12-8-28-10-40-6v34c12-4 28-2 40 6z" fill="#1287D6"/>
  <path d="M100 92c12-8 28-10 40-6v34c-12-4-28-2-40 6z" fill="#0B5CAD"/>
  <path d="M100 92v34" stroke="#EAF3FC" stroke-width="2.5"/>
  <path d="M68 94c8-2 18-1 26 3M68 103c8-2 18-1 26 3M106 97c8-4 18-5 26-3M106 106c8-4 18-5 26-3"
        stroke="#EAF3FC" stroke-width="2.5" stroke-linecap="round" fill="none" opacity=".7"/>

  <!-- kepala menunduk -->
  <circle cx="100" cy="46" r="18" fill="#F6D2B4"/>
  <path d="M82 44a18 18 0 0 1 36 0c0-13-7-20-18-20s-18 7-18 20z" fill="#2A3A52"/>
  <path d="M82 42c-3 15 2 26 9 31-9-2-14-9-15-19 0-6 2-9 6-12z" fill="#2A3A52"/>

  <!-- badan -->
  <path d="M64 122c0-18 16-28 36-28s36 10 36 28z" fill="#0B5CAD" opacity=".9"/>

  <!-- tangan memegang buku -->
  <path d="M66 104c-3 5-4 9-2 12 2 3 6 3 9 0l7-8z" fill="#F6D2B4"/>
  <path d="M134 104c3 5 4 9 2 12-2 3-6 3-9 0l-7-8z" fill="#F6D2B4"/>
</svg>
